<svg width="25" height="24" viewBox="0 0 25 24" fill="none" xmlns="http://www.w3.org/2000/svg">
  <path fill-rule="evenodd" clip-rule="evenodd"
    d="M24.1447 12.2721C24.1447 11.4212 24.0683 10.6031 23.9265 9.81766H12.6251V14.4593H19.083C18.8049 15.9592 17.9595 17.2301 16.6886 18.081V21.0918H20.5666C22.8356 19.0027 24.1447 15.9265 24.1447 12.2721Z"
    fill="#4285F4" />
  <path fill-rule="evenodd" clip-rule="evenodd"
    d="M12.6248 23.9988C15.8646 23.9988 18.5809 22.9243 20.5663 21.0917L16.6882 18.0809C15.6137 18.8009 14.2392 19.2263 12.6248 19.2263C9.49943 19.2263 6.85408 17.1155 5.91048 14.2792H1.90155V17.3882C3.87602 21.3099 7.93404 23.9988 12.6248 23.9988Z"
    fill="#34A853" />
  <path fill-rule="evenodd" clip-rule="evenodd"
    d="M5.91024 14.2796C5.67025 13.5596 5.5339 12.7905 5.5339 11.9997C5.5339 11.2088 5.67025 10.4397 5.91024 9.71976V6.61079H1.90131C1.08862 8.23073 0.625 10.0634 0.625 11.9997C0.625 13.936 1.08862 15.7686 1.90131 17.3885L5.91024 14.2796Z"
    fill="#FBBC05" />
  <path fill-rule="evenodd" clip-rule="evenodd"
    d="M12.6248 4.77248C14.3865 4.77248 15.9683 5.37791 17.2119 6.56695L20.6535 3.12527C18.5754 1.18898 15.8592 -6.10352e-05 12.6248 -6.10352e-05C7.93404 -6.10352e-05 3.87602 2.68892 1.90155 6.61058L5.91048 9.71955C6.85408 6.8833 9.49943 4.77248 12.6248 4.77248Z"
    fill="#EA4335" />
</svg>
