<svg width="16" height="17" viewBox="0 0 16 17" fill="none" xmlns="http://www.w3.org/2000/svg">
  <path
    d="M12.281 4.65121C11.527 4.15971 10.9825 3.37271 10.813 2.45571C10.7765 2.25771 10.756 2.05371 10.756 1.84521H8.349L8.345 11.4912C8.3045 12.5712 7.4155 13.4382 6.3255 13.4382C5.987 13.4382 5.668 13.3537 5.387 13.2057C4.743 12.8667 4.3025 12.1917 4.3025 11.4147C4.3025 10.2992 5.21 9.39122 6.3255 9.39122C6.534 9.39122 6.7335 9.42572 6.9225 9.48472V7.02771C6.727 7.00121 6.5285 6.98421 6.3255 6.98421C3.8825 6.98421 1.8955 8.97171 1.8955 11.4142C1.8955 12.9132 2.6445 14.2392 3.787 15.0412C4.5065 15.5462 5.382 15.8442 6.326 15.8442C8.769 15.8442 10.756 13.8567 10.756 11.4142V6.52322C11.7 7.20072 12.8565 7.60021 14.1045 7.60021V5.19321C13.432 5.19321 12.806 4.99371 12.281 4.65121Z"
    fill="currentColor" />
</svg>